<?xml version="1.0" standalone="no"?>
<svg version="1.0" xmlns="http://www.w3.org/2000/svg"
 width="500.000000pt" height="500.000000pt" viewBox="0 0 500.000000 500.000000"
 preserveAspectRatio="xMidYMid meet">

<g transform="translate(0.000000,500.000000) scale(0.100000,-0.100000)"
fill="#000000" stroke="none">
<path d="M2260 4209 c-760 -86 -1347 -595 -1525 -1323 -105 -433 -58 -882 133
-1262 109 -217 315 -460 521 -615 174 -130 400 -236 618 -289 84 -20 94 -21
114 -6 26 18 27 17 -86 41 -567 121 -1076 598 -1241 1163 -193 665 9 1399 506
1837 546 481 1422 562 2048 190 417 -248 724 -675 807 -1125 26 -141 24 -134
42 -119 48 40 -64 415 -190 633 -209 367 -574 667 -967 795 -238 77 -533 108
-780 80z"/>
<path d="M2545 3250 c-200 -17 -276 -35 -259 -62 4 -6 32 -8 74 -4 l67 7 6
-48 c17 -125 29 -443 23 -588 -22 -512 -123 -775 -299 -775 -57 0 -129 28
-186 71 -46 35 -59 40 -86 35 -53 -10 -61 -29 -24 -60 113 -95 290 -122 413
-62 171 84 254 312 274 754 l7 147 85 7 c47 4 146 5 221 2 99 -5 142 -3 159 6
20 11 21 14 7 22 -20 10 -280 13 -393 3 l-81 -7 -7 213 c-4 118 -9 230 -12
250 l-6 36 54 6 c71 9 346 8 429 -1 36 -4 80 -4 98 0 34 9 41 32 14 43 -26 11
-462 15 -578 5z"/>
<path d="M1710 3056 c-6 -8 -22 -95 -35 -193 -14 -98 -27 -192 -30 -210 l-6
-32 143 2 c168 2 226 -12 294 -75 61 -56 88 -124 88 -223 0 -156 -85 -275
-217 -305 -61 -13 -162 2 -236 36 -61 28 -89 30 -117 10 -26 -20 -12 -32 72
-63 100 -37 229 -43 321 -14 175 53 282 203 270 378 -13 176 -117 278 -312
302 -44 5 -108 7 -142 4 -53 -5 -63 -3 -63 10 0 19 29 243 35 274 l5 21 72
-25 c134 -47 281 -18 367 71 31 32 32 34 12 41 -23 7 -53 -6 -98 -46 -78 -68
-200 -56 -325 32 -31 23 -81 25 -98 5z"/>
<path d="M3279 2151 c-35 -35 -38 -77 -8 -115 16 -21 29 -26 63 -26 52 0 86
31 86 77 0 45 -9 62 -41 78 -42 22 -67 18 -100 -14z"/>
<path d="M3985 2167 c-12 -38 -34 -122 -32 -123 1 -1 45 -13 97 -27 59 -16 97
-21 101 -15 3 5 12 35 19 65 10 46 10 57 -1 64 -11 6 -17 -3 -28 -39 -16 -57
-15 -55 -41 -47 -19 6 -20 12 -14 51 5 35 3 44 -9 44 -9 0 -17 -13 -21 -35 -8
-39 -17 -48 -41 -39 -13 5 -15 14 -10 41 3 19 8 40 11 47 3 8 -2 16 -11 20 -9
3 -18 0 -20 -7z"/>
<path d="M3913 1890 c-18 -7 -63 -85 -63 -109 0 -4 41 -26 90 -48 84 -39 91
-40 100 -23 8 15 4 20 -20 30 -17 7 -30 18 -30 26 0 17 32 34 64 34 16 0 30 8
37 21 11 21 10 22 -35 17 -34 -4 -46 -2 -46 8 0 14 -47 54 -64 53 -6 0 -21 -4
-33 -9z m51 -46 c14 -14 14 -18 1 -44 -14 -27 -18 -28 -40 -18 -28 13 -32 39
-9 62 19 20 29 20 48 0z"/>
<path d="M3774 1620 c-31 -12 -64 -59 -64 -89 0 -43 35 -89 76 -100 102 -28
172 89 97 164 -14 14 -31 25 -37 25 -6 0 -20 2 -31 5 -11 2 -30 0 -41 -5z m81
-55 c30 -29 32 -58 5 -85 -26 -26 -51 -25 -84 1 -30 24 -34 63 -9 91 23 25 59
23 88 -7z"/>
<path d="M3535 1350 c-48 -49 -56 -60 -41 -66 11 -4 25 1 39 15 l23 21 59 -60
c46 -47 62 -57 72 -48 12 9 3 23 -47 73 -60 61 -61 61 -40 80 23 20 27 45 7
45 -7 0 -39 -27 -72 -60z"/>
<path d="M3366 1199 c-43 -12 -66 -38 -66 -74 0 -44 21 -59 69 -51 22 3 46 9
55 12 10 4 18 0 22 -10 8 -20 -18 -42 -58 -50 -20 -4 -26 -10 -22 -21 12 -30
76 -10 112 33 18 23 15 56 -8 77 -19 17 -25 17 -71 6 -36 -10 -54 -10 -61 -3
-15 15 6 40 42 50 19 5 25 12 21 23 -5 12 -13 14 -35 8z"/>
<path d="M2943 978 c-29 -11 -53 -24 -53 -29 0 -4 14 -46 31 -93 25 -69 35
-86 51 -86 16 0 19 4 13 23 -19 62 -19 64 19 77 20 6 36 15 36 20 0 18 -22 22
-52 9 -25 -10 -31 -10 -39 2 -16 25 -10 36 31 52 23 9 40 22 40 31 0 20 -12
19 -77 -6z"/>
<path d="M2703 868 l-43 -9 0 -60 c0 -45 3 -59 14 -59 8 0 18 5 21 10 10 15
52 12 59 -5 11 -28 -5 -46 -38 -44 -17 2 -38 -1 -45 -5 -12 -8 -11 -11 4 -23
29 -21 73 -16 100 12 32 31 32 59 -1 92 -20 20 -32 24 -55 19 -24 -5 -29 -2
-29 14 0 14 9 21 35 26 25 4 35 11 35 25 0 11 -3 19 -7 18 -5 -1 -27 -5 -50
-11z"/>
</g>
</svg>
